<svg xmlns="http://www.w3.org/2000/svg" xmlns:xlink="http://www.w3.org/1999/xlink" width="500" zoomAndPan="magnify" viewBox="0 0 375 374.999991" height="500" preserveAspectRatio="xMidYMid meet" version="1.0"><defs><clipPath id="5622f16c1c"><path d="M 86.074219 37.5 L 288.574219 37.5 L 288.574219 324.75 L 86.074219 324.75 Z M 86.074219 37.5 " clip-rule="nonzero"/></clipPath><clipPath id="82bf0d024e"><path d="M 117.207031 80.050781 L 257.457031 80.050781 L 257.457031 330 L 117.207031 330 Z M 117.207031 80.050781 " clip-rule="nonzero"/></clipPath><clipPath id="004e86045f"><path d="M 157 162 L 217 162 L 217 350.050781 L 157 350.050781 Z M 157 162 " clip-rule="nonzero"/></clipPath></defs><g clip-path="url(#5622f16c1c)"><path fill="#b0bd03" d="M 86.074219 37.5 L 288.574219 37.5 L 288.574219 324.75 L 86.074219 324.75 Z M 86.074219 37.5 " fill-opacity="1" fill-rule="nonzero"/></g><g clip-path="url(#82bf0d024e)"><path fill="#ffffff" d="M 186.859375 329.601562 C 234.710938 333.878906 261.238281 261.21875 256.921875 202.4375 L 237.394531 211.289062 C 237.394531 211.289062 238.292969 161.292969 231.785156 133.253906 L 210.226562 148.601562 C 210.226562 148.601562 186.550781 100.445312 168.628906 80.050781 C 168.628906 80.050781 148.128906 146.976562 146.796875 168.65625 C 146.796875 168.65625 125.460938 151.667969 118.125 151.890625 C 118.125 151.890625 125.535156 203.847656 134.984375 232.882812 L 117.617188 224.636719 C 117.617188 224.636719 127.441406 324.300781 186.859375 329.601562 Z M 186.859375 329.601562 " fill-opacity="1" fill-rule="nonzero"/></g><g clip-path="url(#004e86045f)"><path fill="#67923d" d="M 209.101562 229.035156 C 203.40625 240.007812 197.710938 250.976562 192.011719 261.953125 C 190.515625 246.140625 188.757812 230.347656 186.9375 214.601562 C 191.867188 205.667969 196.804688 196.738281 201.738281 187.804688 C 204.203125 183.34375 197.386719 179.363281 194.921875 183.820312 C 191.738281 189.585938 188.554688 195.347656 185.367188 201.113281 C 184.011719 189.550781 182.660156 178.023438 181.398438 166.542969 C 180.847656 161.539062 172.941406 161.488281 173.5 166.542969 C 175.921875 188.527344 178.664062 210.699219 181.125 232.9375 C 175.652344 223.1875 170.179688 213.4375 164.707031 203.6875 C 162.214844 199.242188 155.394531 203.222656 157.886719 207.667969 C 166.011719 222.144531 174.140625 236.617188 182.261719 251.089844 C 182.515625 251.550781 182.828125 251.898438 183.164062 252.183594 C 183.933594 259.761719 184.644531 267.339844 185.28125 274.921875 C 185.277344 274.929688 185.269531 274.9375 185.265625 274.949219 C 184.4375 276.558594 184.769531 278.089844 185.648438 279.203125 C 185.917969 282.585938 186.164062 285.964844 186.40625 289.34375 C 180.5625 280.269531 174.710938 271.195312 168.867188 262.125 C 166.121094 257.855469 159.285156 261.8125 162.050781 266.105469 C 170.375 279.027344 178.699219 291.945312 187.019531 304.863281 C 187.128906 305.035156 187.253906 305.167969 187.375 305.3125 C 188.09375 319.101562 188.472656 332.867188 188.335938 346.585938 C 188.28125 351.675781 196.179688 351.671875 196.230469 346.585938 C 196.460938 323.339844 195.253906 299.953125 193.316406 276.5625 C 200.851562 262.050781 208.390625 247.535156 215.925781 233.015625 C 218.265625 228.507812 211.449219 224.511719 209.101562 229.035156 Z M 209.101562 229.035156 " fill-opacity="1" fill-rule="nonzero"/></g></svg>