<svg width="82" height="96" viewBox="0 0 82 96" fill="none" xmlns="http://www.w3.org/2000/svg">
<g opacity="1">
<path d="M2.61899 25.7367C-7.41332 47.4195 17.3169 80.0784 30.936 93.6976C34.8207 97.5822 35.7899 93.6983 35.7889 91.2707C36.1934 58.9084 43.8795 54.0541 49.5429 48.3907C54.9172 43.0164 56.4199 32.2359 53.5882 23.7141C49.2044 10.5214 15.1594 -1.36671 2.61899 25.7367Z" fill="#2E9CE0"/>
<path d="M79.6682 17.4319C89.7005 39.1147 64.9703 71.7736 51.3512 85.3928C47.4665 89.2774 46.4973 85.3935 46.4983 82.9659C46.0938 50.6036 38.4077 45.7493 32.7443 40.0859C27.37 34.7116 25.8673 23.9311 28.699 15.4093C33.0828 2.21663 67.1278 -9.67153 79.6682 17.4319Z" fill="#70c8ff"/>
<path d="M43.1667 55.7003C40.6654 47.6027 36.88 44.6414 33.7214 41.5967C33.284 41.175 32.8539 40.7604 32.4349 40.3414C27.0606 34.9671 25.5579 24.1866 28.3896 15.6648C29.0416 13.7025 30.4483 11.7691 32.2444 9.98855C42.5147 11.4569 51.5545 17.5611 53.6853 23.9734C56.517 32.4952 55.0143 43.2757 49.64 48.65C49.221 49.0691 48.7908 49.4837 48.3534 49.9053C46.5788 51.616 44.9301 52.992 43.1667 55.7003Z" fill="#70c8ff"/>
</g>
</svg>
