<svg width="32" height="32" viewBox="0 0 32 32" fill="none" xmlns="http://www.w3.org/2000/svg">
<path d="M29.3333 22.6667H2.66659C2.31296 22.6667 1.97382 22.8071 1.72378 23.0572C1.47373 23.3072 1.33325 23.6464 1.33325 24C1.33325 24.3536 1.47373 24.6928 1.72378 24.9428C1.97382 25.1929 2.31296 25.3333 2.66659 25.3333H29.3333C29.6869 25.3333 30.026 25.1929 30.2761 24.9428C30.5261 24.6928 30.6666 24.3536 30.6666 24C30.6666 23.6464 30.5261 23.3072 30.2761 23.0572C30.026 22.8071 29.6869 22.6667 29.3333 22.6667ZM29.3333 28H2.66659C2.31296 28 1.97382 28.1405 1.72378 28.3905C1.47373 28.6406 1.33325 28.9797 1.33325 29.3333C1.33325 29.6869 1.47373 30.0261 1.72378 30.2761C1.97382 30.5262 2.31296 30.6667 2.66659 30.6667H29.3333C29.6869 30.6667 30.026 30.5262 30.2761 30.2761C30.5261 30.0261 30.6666 29.6869 30.6666 29.3333C30.6666 28.9797 30.5261 28.6406 30.2761 28.3905C30.026 28.1405 29.6869 28 29.3333 28ZM7.99992 9.33333C7.73621 9.33333 7.47842 9.41153 7.25916 9.55804C7.03989 9.70454 6.869 9.91278 6.76808 10.1564C6.66716 10.4001 6.64076 10.6681 6.6922 10.9268C6.74365 11.1854 6.87064 11.423 7.05711 11.6095C7.24358 11.7959 7.48116 11.9229 7.7398 11.9744C7.99844 12.0258 8.26653 11.9994 8.51016 11.8985C8.7538 11.7976 8.96204 11.6267 9.10854 11.4074C9.25505 11.1882 9.33325 10.9304 9.33325 10.6667C9.33325 10.313 9.19278 9.9739 8.94273 9.72385C8.69268 9.4738 8.35354 9.33333 7.99992 9.33333ZM26.6666 1.33333H5.33325C4.27239 1.33333 3.25497 1.75476 2.50482 2.5049C1.75468 3.25505 1.33325 4.27246 1.33325 5.33333V16C1.33325 17.0609 1.75468 18.0783 2.50482 18.8284C3.25497 19.5786 4.27239 20 5.33325 20H26.6666C27.7274 20 28.7449 19.5786 29.495 18.8284C30.2452 18.0783 30.6666 17.0609 30.6666 16V5.33333C30.6666 4.27246 30.2452 3.25505 29.495 2.5049C28.7449 1.75476 27.7274 1.33333 26.6666 1.33333V1.33333ZM27.9999 16C27.9999 16.3536 27.8594 16.6928 27.6094 16.9428C27.3593 17.1929 27.0202 17.3333 26.6666 17.3333H5.33325C4.97963 17.3333 4.64049 17.1929 4.39044 16.9428C4.14039 16.6928 3.99992 16.3536 3.99992 16V5.33333C3.99992 4.97971 4.14039 4.64057 4.39044 4.39052C4.64049 4.14047 4.97963 3.99999 5.33325 3.99999H26.6666C27.0202 3.99999 27.3593 4.14047 27.6094 4.39052C27.8594 4.64057 27.9999 4.97971 27.9999 5.33333V16ZM15.9999 6.66666C15.2088 6.66666 14.4354 6.90126 13.7776 7.34078C13.1198 7.78031 12.6071 8.40502 12.3044 9.13593C12.0016 9.86683 11.9224 10.6711 12.0768 11.447C12.2311 12.2229 12.6121 12.9357 13.1715 13.4951C13.7309 14.0545 14.4436 14.4355 15.2196 14.5898C15.9955 14.7441 16.7997 14.6649 17.5307 14.3622C18.2616 14.0594 18.8863 13.5467 19.3258 12.8889C19.7653 12.2311 19.9999 11.4578 19.9999 10.6667C19.9999 9.6058 19.5785 8.58838 18.8283 7.83823C18.0782 7.08809 17.0608 6.66666 15.9999 6.66666ZM15.9999 12C15.7362 12 15.4784 11.9218 15.2592 11.7753C15.0399 11.6288 14.869 11.4205 14.7681 11.1769C14.6672 10.9333 14.6408 10.6652 14.6922 10.4065C14.7437 10.1479 14.8706 9.91032 15.0571 9.72385C15.2436 9.53738 15.4812 9.41039 15.7398 9.35895C15.9984 9.3075 16.2665 9.3339 16.5102 9.43482C16.7538 9.53574 16.962 9.70664 17.1085 9.9259C17.2551 10.1452 17.3333 10.403 17.3333 10.6667C17.3333 11.0203 17.1928 11.3594 16.9427 11.6095C16.6927 11.8595 16.3535 12 15.9999 12ZM23.9999 9.33333C23.7362 9.33333 23.4784 9.41153 23.2592 9.55804C23.0399 9.70454 22.869 9.91278 22.7681 10.1564C22.6672 10.4001 22.6408 10.6681 22.6922 10.9268C22.7437 11.1854 22.8706 11.423 23.0571 11.6095C23.2436 11.7959 23.4812 11.9229 23.7398 11.9744C23.9984 12.0258 24.2665 11.9994 24.5102 11.8985C24.7538 11.7976 24.962 11.6267 25.1085 11.4074C25.2551 11.1882 25.3333 10.9304 25.3333 10.6667C25.3333 10.313 25.1928 9.9739 24.9427 9.72385C24.6927 9.4738 24.3535 9.33333 23.9999 9.33333Z" fill="#2E9CE0"/>
</svg>
