<svg xmlns="http://www.w3.org/2000/svg" xmlns:xlink="http://www.w3.org/1999/xlink" width="500" zoomAndPan="magnify" viewBox="0 0 375 374.999991" height="500" preserveAspectRatio="xMidYMid meet" version="1.0"><defs><g/><clipPath id="ab09652454"><path d="M 193.921875 16.566406 L 266.890625 16.566406 L 266.890625 84.976562 L 193.921875 84.976562 Z M 193.921875 16.566406 " clip-rule="nonzero"/></clipPath><clipPath id="83be81435a"><path d="M 98 16.148438 L 266 16.148438 L 266 158 L 98 158 Z M 98 16.148438 " clip-rule="nonzero"/></clipPath><clipPath id="e3521e45a9"><path d="M 99 63.792969 L 239.0625 63.792969 L 239.0625 185.550781 L 99 185.550781 Z M 99 63.792969 " clip-rule="nonzero"/></clipPath><clipPath id="dc4f988fc0"><path d="M 115.089844 120.394531 L 188.363281 120.394531 L 188.363281 185.550781 L 115.089844 185.550781 Z M 115.089844 120.394531 " clip-rule="nonzero"/></clipPath></defs><g clip-path="url(#ab09652454)"><path fill="#d0edff" d="M 219.121094 43.691406 C 219.675781 43.714844 220.210938 43.75 220.769531 43.769531 C 220.769531 43.769531 178.234375 32.40625 200.304688 25.394531 C 203.800781 24.585938 207.640625 23.460938 211.65625 21.886719 C 229.125 15.050781 252.476562 10.6875 262.351562 35.558594 C 267.050781 47.40625 268.429688 65.15625 265.984375 84.761719 C 260.617188 70.292969 247.753906 54.492188 219.121094 43.691406 " fill-opacity="1" fill-rule="nonzero"/></g><g clip-path="url(#83be81435a)"><path fill="#a2dbff" d="M 168.085938 66.410156 C 144.066406 61.652344 118.523438 62.757812 99.007812 79.121094 C 97.464844 61.773438 99 46.257812 103.246094 35.558594 C 108.445312 22.464844 117.375 17.476562 127.214844 16.683594 C 133.894531 16.144531 139.914062 17.476562 145.847656 20.394531 C 152.105469 23.472656 158.183594 26.90625 164.351562 30.15625 C 175.527344 36.046875 193.519531 42.621094 219.121094 43.691406 C 247.753906 54.492188 260.617188 70.292969 265.984375 84.761719 C 263.296875 106.320312 255.992188 130.121094 243.363281 150.800781 C 241.878906 153.230469 240.4375 155.492188 239.035156 157.597656 C 237.390625 148.429688 233.003906 128.339844 223.65625 110.246094 C 217.164062 97.683594 196.847656 72.105469 168.085938 66.410156 " fill-opacity="1" fill-rule="nonzero"/></g><g clip-path="url(#e3521e45a9)"><path fill="#70c8ff" d="M 168.085938 66.410156 C 196.847656 72.105469 217.164062 97.683594 223.65625 110.246094 C 233.003906 128.339844 237.390625 148.429688 239.035156 157.597656 C 217.6875 189.699219 206.152344 185.355469 206.152344 185.355469 C 206.152344 185.355469 199.125 183.078125 194.378906 169.597656 C 191.457031 161.300781 190.332031 153.011719 188.308594 147.855469 C 188.308594 147.855469 177.480469 114.539062 141.597656 121.371094 C 127.660156 124.027344 119.796875 130.851562 115.371094 138.203125 C 105.976562 118.878906 100.679688 97.925781 99.007812 79.121094 C 118.523438 62.757812 144.066406 61.652344 168.085938 66.410156 " fill-opacity="1" fill-rule="nonzero"/></g><g clip-path="url(#dc4f988fc0)"><path fill="#2e9ce0" d="M 141.597656 121.371094 C 177.480469 114.539062 188.308594 147.855469 188.308594 147.855469 C 187.042969 144.636719 185.425781 142.636719 182.796875 142.636719 C 175.960938 142.636719 175.960938 156.117188 171.214844 169.597656 C 166.46875 183.078125 159.445312 185.355469 159.445312 185.355469 C 159.445312 185.355469 146.34375 190.292969 122.234375 150.800781 C 119.738281 146.710938 117.460938 142.496094 115.371094 138.203125 C 119.796875 130.851562 127.660156 124.027344 141.597656 121.371094 " fill-opacity="1" fill-rule="nonzero"/></g><g fill="#464646" fill-opacity="1"><g transform="translate(32.136576, 237.561978)"><g><path d="M 10.296875 -5.84375 L 20.203125 -5.84375 L 20.203125 0 L 2.734375 0 L 2.734375 -31.046875 L 10.296875 -31.046875 Z M 10.296875 -5.84375 "/></g></g></g><g fill="#464646" fill-opacity="1"><g transform="translate(57.071663, 237.561978)"><g><path d="M 22.0625 -5.484375 L 10.484375 -5.484375 L 8.625 0 L 0.703125 0 L 11.9375 -31.046875 L 20.6875 -31.046875 L 31.921875 0 L 23.921875 0 Z M 20.125 -11.3125 L 16.265625 -22.6875 L 12.46875 -11.3125 Z M 20.125 -11.3125 "/></g></g></g><g fill="#464646" fill-opacity="1"><g transform="translate(93.500852, 237.561978)"><g><path d="M 20.734375 0 L 10.296875 -13.703125 L 10.296875 0 L 2.734375 0 L 2.734375 -31.046875 L 10.296875 -31.046875 L 10.296875 -17.421875 L 20.65625 -31.046875 L 29.53125 -31.046875 L 17.515625 -15.828125 L 29.984375 0 Z M 20.734375 0 "/></g></g></g><g fill="#464646" fill-opacity="1"><g transform="translate(128.16172, 237.561978)"><g><path d="M 10.296875 -24.984375 L 10.296875 -18.703125 L 20.421875 -18.703125 L 20.421875 -12.875 L 10.296875 -12.875 L 10.296875 -6.0625 L 21.75 -6.0625 L 21.75 0 L 2.734375 0 L 2.734375 -31.046875 L 21.75 -31.046875 L 21.75 -24.984375 Z M 10.296875 -24.984375 "/></g></g></g><g fill="#464646" fill-opacity="1"><g transform="translate(155.926125, 237.561978)"><g><path d="M 13.96875 0.3125 C 11.695312 0.3125 9.660156 -0.0546875 7.859375 -0.796875 C 6.066406 -1.535156 4.632812 -2.625 3.5625 -4.0625 C 2.488281 -5.507812 1.921875 -7.25 1.859375 -9.28125 L 9.90625 -9.28125 C 10.019531 -8.132812 10.414062 -7.257812 11.09375 -6.65625 C 11.769531 -6.050781 12.65625 -5.75 13.75 -5.75 C 14.875 -5.75 15.757812 -6.003906 16.40625 -6.515625 C 17.050781 -7.035156 17.375 -7.753906 17.375 -8.671875 C 17.375 -9.429688 17.113281 -10.0625 16.59375 -10.5625 C 16.082031 -11.0625 15.453125 -11.472656 14.703125 -11.796875 C 13.953125 -12.128906 12.882812 -12.5 11.5 -12.90625 C 9.488281 -13.53125 7.847656 -14.148438 6.578125 -14.765625 C 5.316406 -15.390625 4.226562 -16.304688 3.3125 -17.515625 C 2.40625 -18.722656 1.953125 -20.296875 1.953125 -22.234375 C 1.953125 -25.128906 2.992188 -27.394531 5.078125 -29.03125 C 7.171875 -30.664062 9.898438 -31.484375 13.265625 -31.484375 C 16.679688 -31.484375 19.4375 -30.664062 21.53125 -29.03125 C 23.625 -27.394531 24.742188 -25.117188 24.890625 -22.203125 L 16.71875 -22.203125 C 16.65625 -23.203125 16.285156 -23.988281 15.609375 -24.5625 C 14.929688 -25.132812 14.0625 -25.421875 13 -25.421875 C 12.082031 -25.421875 11.34375 -25.175781 10.78125 -24.6875 C 10.226562 -24.207031 9.953125 -23.507812 9.953125 -22.59375 C 9.953125 -21.59375 10.421875 -20.8125 11.359375 -20.25 C 12.304688 -19.6875 13.78125 -19.082031 15.78125 -18.4375 C 17.789062 -17.757812 19.421875 -17.109375 20.671875 -16.484375 C 21.921875 -15.867188 23.003906 -14.972656 23.921875 -13.796875 C 24.835938 -12.617188 25.296875 -11.097656 25.296875 -9.234375 C 25.296875 -7.472656 24.84375 -5.867188 23.9375 -4.421875 C 23.039062 -2.972656 21.738281 -1.820312 20.03125 -0.96875 C 18.320312 -0.113281 16.300781 0.3125 13.96875 0.3125 Z M 13.96875 0.3125 "/></g></g></g><g fill="#464646" fill-opacity="1"><g transform="translate(186.961923, 237.561978)"><g/></g></g><g fill="#464646" fill-opacity="1"><g transform="translate(200.181859, 237.561978)"><g><path d="M 22.0625 -5.484375 L 10.484375 -5.484375 L 8.625 0 L 0.703125 0 L 11.9375 -31.046875 L 20.6875 -31.046875 L 31.921875 0 L 23.921875 0 Z M 20.125 -11.3125 L 16.265625 -22.6875 L 12.46875 -11.3125 Z M 20.125 -11.3125 "/></g></g></g><g fill="#464646" fill-opacity="1"><g transform="translate(236.611055, 237.561978)"><g><path d="M 18.578125 0 L 12.109375 -11.71875 L 10.296875 -11.71875 L 10.296875 0 L 2.734375 0 L 2.734375 -31.046875 L 15.4375 -31.046875 C 17.882812 -31.046875 19.96875 -30.617188 21.6875 -29.765625 C 23.414062 -28.910156 24.707031 -27.738281 25.5625 -26.25 C 26.414062 -24.757812 26.84375 -23.097656 26.84375 -21.265625 C 26.84375 -19.203125 26.257812 -17.359375 25.09375 -15.734375 C 23.925781 -14.117188 22.207031 -12.972656 19.9375 -12.296875 L 27.109375 0 Z M 10.296875 -17.0625 L 14.984375 -17.0625 C 16.367188 -17.0625 17.40625 -17.398438 18.09375 -18.078125 C 18.789062 -18.765625 19.140625 -19.722656 19.140625 -20.953125 C 19.140625 -22.140625 18.789062 -23.070312 18.09375 -23.75 C 17.40625 -24.425781 16.367188 -24.765625 14.984375 -24.765625 L 10.296875 -24.765625 Z M 10.296875 -17.0625 "/></g></g></g><g fill="#464646" fill-opacity="1"><g transform="translate(269.282538, 237.561978)"><g><path d="M 10.296875 -24.984375 L 10.296875 -18.703125 L 20.421875 -18.703125 L 20.421875 -12.875 L 10.296875 -12.875 L 10.296875 -6.0625 L 21.75 -6.0625 L 21.75 0 L 2.734375 0 L 2.734375 -31.046875 L 21.75 -31.046875 L 21.75 -24.984375 Z M 10.296875 -24.984375 "/></g></g></g><g fill="#464646" fill-opacity="1"><g transform="translate(297.046951, 237.561978)"><g><path d="M 22.0625 -5.484375 L 10.484375 -5.484375 L 8.625 0 L 0.703125 0 L 11.9375 -31.046875 L 20.6875 -31.046875 L 31.921875 0 L 23.921875 0 Z M 20.125 -11.3125 L 16.265625 -22.6875 L 12.46875 -11.3125 Z M 20.125 -11.3125 "/></g></g></g><g fill="#464646" fill-opacity="1"><g transform="translate(333.486065, 237.561978)"><g/></g></g><g fill="#464646" fill-opacity="1"><g transform="translate(45.129656, 351.916485)"><g><path d="M 16.078125 -4.671875 L 5.640625 -4.671875 L 3.671875 0 L 0.03125 0 L 9.171875 -20.6875 L 12.734375 -20.6875 L 21.78125 0 L 18.0625 0 Z M 14.75 -7.78125 L 10.84375 -16.96875 L 6.953125 -7.78125 Z M 14.75 -7.78125 "/></g></g></g><g fill="#464646" fill-opacity="1"><g transform="translate(76.613402, 351.916485)"><g><path d="M 6.203125 -3.15625 L 15.171875 -3.15625 L 15.171875 0 L 2.71875 0 L 2.71875 -20.6875 L 6.203125 -20.6875 Z M 6.203125 -3.15625 "/></g></g></g><g fill="#464646" fill-opacity="1"><g transform="translate(102.067376, 351.916485)"><g><path d="M 17.5 -17.5625 L 6.203125 -17.5625 L 6.203125 -11.96875 L 16.3125 -11.96875 L 16.3125 -8.84375 L 6.203125 -8.84375 L 6.203125 -3.140625 L 17.859375 -3.140625 L 17.859375 0 L 2.71875 0 L 2.71875 -20.6875 L 17.5 -20.6875 Z M 17.5 -17.5625 "/></g></g></g><g fill="#464646" fill-opacity="1"><g transform="translate(131.127395, 351.916485)"><g><path d="M 12.296875 -10.765625 L 19.84375 0 L 15.671875 0 L 10.078125 -7.796875 L 4.515625 0 L 0.4375 0 L 7.984375 -10.609375 L 0.96875 -20.6875 L 5.03125 -20.6875 L 10.078125 -13.515625 L 15.171875 -20.6875 L 19.25 -20.6875 Z M 12.296875 -10.765625 "/></g></g></g><g fill="#464646" fill-opacity="1"><g transform="translate(161.251476, 351.916485)"><g><path d="M 16.078125 -4.671875 L 5.640625 -4.671875 L 3.671875 0 L 0.03125 0 L 9.171875 -20.6875 L 12.734375 -20.6875 L 21.78125 0 L 18.0625 0 Z M 14.75 -7.78125 L 10.84375 -16.96875 L 6.953125 -7.78125 Z M 14.75 -7.78125 "/></g></g></g><g fill="#464646" fill-opacity="1"><g transform="translate(192.735221, 351.916485)"><g><path d="M 20.671875 0 L 17.234375 0 L 6.203125 -14.84375 L 6.203125 0 L 2.71875 0 L 2.71875 -20.6875 L 6.15625 -20.6875 L 17.234375 -5.828125 L 17.234375 -20.6875 L 20.671875 -20.6875 Z M 20.671875 0 "/></g></g></g><g fill="#464646" fill-opacity="1"><g transform="translate(225.815092, 351.916485)"><g><path d="M 2.71875 -20.6875 L 11.203125 -20.6875 C 14.296875 -20.6875 16.851562 -19.710938 18.875 -17.765625 C 20.894531 -15.816406 21.90625 -13.34375 21.90625 -10.34375 C 21.90625 -7.351562 20.890625 -4.878906 18.859375 -2.921875 C 16.828125 -0.972656 14.242188 0 11.109375 0 L 2.71875 0 Z M 6.203125 -17.5625 L 6.203125 -3.140625 L 11.296875 -3.140625 C 13.328125 -3.140625 15.015625 -3.8125 16.359375 -5.15625 C 17.710938 -6.507812 18.390625 -8.226562 18.390625 -10.3125 C 18.390625 -12.40625 17.691406 -14.132812 16.296875 -15.5 C 14.910156 -16.875 13.191406 -17.5625 11.140625 -17.5625 Z M 6.203125 -17.5625 "/></g></g></g><g fill="#464646" fill-opacity="1"><g transform="translate(258.392482, 351.916485)"><g><path d="M 15.84375 0 L 12.0625 -6.265625 C 11.863281 -6.242188 11.546875 -6.234375 11.109375 -6.234375 L 6.203125 -6.234375 L 6.203125 0 L 2.71875 0 L 2.71875 -20.6875 L 11.109375 -20.6875 C 13.753906 -20.6875 15.804688 -20.070312 17.265625 -18.84375 C 18.722656 -17.613281 19.453125 -15.875 19.453125 -13.625 C 19.453125 -11.96875 19.082031 -10.566406 18.34375 -9.421875 C 17.601562 -8.285156 16.546875 -7.453125 15.171875 -6.921875 L 19.8125 0 Z M 6.203125 -9.375 L 11.109375 -9.375 C 14.460938 -9.375 16.140625 -10.765625 16.140625 -13.546875 C 16.140625 -16.222656 14.460938 -17.5625 11.109375 -17.5625 L 6.203125 -17.5625 Z M 6.203125 -9.375 "/></g></g></g><g fill="#464646" fill-opacity="1"><g transform="translate(289.432876, 351.916485)"><g><path d="M 6.203125 0 L 2.71875 0 L 2.71875 -20.6875 L 6.203125 -20.6875 Z M 6.203125 0 "/></g></g></g><g fill="#464646" fill-opacity="1"><g transform="translate(308.029454, 351.916485)"><g><path d="M 16.078125 -4.671875 L 5.640625 -4.671875 L 3.671875 0 L 0.03125 0 L 9.171875 -20.6875 L 12.734375 -20.6875 L 21.78125 0 L 18.0625 0 Z M 14.75 -7.78125 L 10.84375 -16.96875 L 6.953125 -7.78125 Z M 14.75 -7.78125 "/></g></g></g><g fill="#464646" fill-opacity="1"><g transform="translate(8.35594, 305.875827)"><g><path d="M 22.9375 -49.5625 C 28.164062 -49.5625 32.734375 -48.523438 36.640625 -46.453125 C 40.546875 -44.378906 43.566406 -41.472656 45.703125 -37.734375 C 47.847656 -33.992188 48.921875 -29.675781 48.921875 -24.78125 C 48.921875 -19.925781 47.847656 -15.617188 45.703125 -11.859375 C 43.566406 -8.097656 40.53125 -5.179688 36.59375 -3.109375 C 32.664062 -1.035156 28.113281 0 22.9375 0 L 4.375 0 L 4.375 -49.5625 Z M 22.171875 -10.453125 C 26.734375 -10.453125 30.285156 -11.695312 32.828125 -14.1875 C 35.367188 -16.6875 36.640625 -20.21875 36.640625 -24.78125 C 36.640625 -29.34375 35.367188 -32.894531 32.828125 -35.4375 C 30.285156 -37.976562 26.734375 -39.25 22.171875 -39.25 L 16.453125 -39.25 L 16.453125 -10.453125 Z M 22.171875 -10.453125 "/></g></g></g><g fill="#464646" fill-opacity="1"><g transform="translate(77.325745, 305.875827)"><g><path d="M 16.453125 -39.890625 L 16.453125 -29.859375 L 32.609375 -29.859375 L 32.609375 -20.546875 L 16.453125 -20.546875 L 16.453125 -9.671875 L 34.734375 -9.671875 L 34.734375 0 L 4.375 0 L 4.375 -49.5625 L 34.734375 -49.5625 L 34.734375 -39.890625 Z M 16.453125 -39.890625 "/></g></g></g><g fill="#464646" fill-opacity="1"><g transform="translate(133.166083, 305.875827)"><g><path d="M 48.703125 0 L 36.640625 0 L 16.453125 -30.5625 L 16.453125 0 L 4.375 0 L 4.375 -49.5625 L 16.453125 -49.5625 L 36.640625 -18.84375 L 36.640625 -49.5625 L 48.703125 -49.5625 Z M 48.703125 0 "/></g></g></g><g fill="#464646" fill-opacity="1"><g transform="translate(203.900602, 305.875827)"><g><path d="M 40.03125 -49.5625 L 40.03125 -39.890625 L 26.890625 -39.890625 L 26.890625 0 L 14.828125 0 L 14.828125 -39.890625 L 1.6875 -39.890625 L 1.6875 -49.5625 Z M 40.03125 -49.5625 "/></g></g></g><g fill="#464646" fill-opacity="1"><g transform="translate(263.270366, 305.875827)"><g><path d="M 35.21875 -8.75 L 16.734375 -8.75 L 13.765625 0 L 1.125 0 L 19.0625 -49.5625 L 33.03125 -49.5625 L 50.96875 0 L 38.1875 0 Z M 32.125 -18.078125 L 25.984375 -36.21875 L 19.90625 -18.078125 Z M 32.125 -18.078125 "/></g></g></g><g fill="#464646" fill-opacity="1"><g transform="translate(332.946049, 305.875827)"><g><path d="M 16.453125 -9.3125 L 32.265625 -9.3125 L 32.265625 0 L 4.375 0 L 4.375 -49.5625 L 16.453125 -49.5625 Z M 16.453125 -9.3125 "/></g></g></g></svg>