<svg width="32" height="32" viewBox="0 0 32 32" fill="none" xmlns="http://www.w3.org/2000/svg">
<path d="M28.9924 22.5999C29.4377 21.9933 29.7015 21.2454 29.7015 20.4368C29.7015 18.4166 28.0579 16.7729 26.0377 16.7729C24.0174 16.7729 22.3738 18.4166 22.3738 20.4368C22.3738 21.2454 22.6375 21.9932 23.0829 22.5999C22.2545 22.9455 21.5418 23.5137 21.0188 24.2291C20.4958 23.5136 19.783 22.9455 18.9547 22.5999C19.4 21.9933 19.6638 21.2454 19.6638 20.4368C19.6638 18.4166 18.0202 16.7729 15.9999 16.7729C13.9797 16.7729 12.336 18.4166 12.336 20.4368C12.336 21.2454 12.5998 21.9932 13.0451 22.5999C12.2168 22.9455 11.5041 23.5137 10.9811 24.2291C10.458 23.5136 9.7453 22.9455 8.91699 22.5999C9.36229 21.9932 9.62608 21.2454 9.62608 20.4368C9.62608 18.4166 7.98245 16.7729 5.96219 16.7729C3.94192 16.7729 2.29835 18.4166 2.29835 20.4368C2.29835 21.2454 2.56215 21.9932 3.00745 22.5999C1.24692 23.3344 0.00610352 25.0733 0.00610352 27.0969V32H31.9938V27.0969C31.9937 25.0733 30.7529 23.3344 28.9924 22.5999V22.5999ZM26.0376 18.6474C27.0243 18.6474 27.827 19.4501 27.827 20.4368C27.827 21.4236 27.0242 22.2263 26.0376 22.2263C25.0509 22.2263 24.2481 21.4236 24.2481 20.4368C24.2481 19.4501 25.0509 18.6474 26.0376 18.6474ZM15.9999 18.6474C16.9866 18.6474 17.7893 19.4501 17.7893 20.4368C17.7893 21.4236 16.9865 22.2263 15.9999 22.2263C15.0132 22.2263 14.2104 21.4236 14.2104 20.4368C14.2104 19.4501 15.0132 18.6474 15.9999 18.6474ZM5.96206 18.6474C6.94877 18.6474 7.75152 19.4501 7.75152 20.4368C7.75152 21.4236 6.94877 22.2263 5.96206 22.2263C4.97536 22.2263 4.17266 21.4236 4.17266 20.4368C4.17266 19.4501 4.97542 18.6474 5.96206 18.6474ZM10.0437 30.1255H1.88041V27.0968C1.88041 25.4448 3.22451 24.1007 4.87658 24.1007H7.04755C8.69961 24.1007 10.0437 25.4448 10.0437 27.0968V30.1255ZM20.0815 30.1255H11.9181V27.0968C11.9181 25.4448 13.2622 24.1007 14.9143 24.1007H17.0853C18.7373 24.1007 20.0814 25.4448 20.0814 27.0968V30.1255H20.0815ZM30.1192 30.1255H21.9559V27.0968C21.9559 25.4448 23.3 24.1007 24.9521 24.1007H27.1231C28.7751 24.1007 30.1192 25.4448 30.1192 27.0968V30.1255Z" fill="#2E9CE0"/>
<path d="M5.45587 15.4798L5.95322 15.7912L6.45057 15.4798C8.65972 14.0966 10.1669 12.8039 11.0271 11.5376C12.2089 12.5937 13.6901 13.6766 15.5028 14.8115L16.0001 15.1229L16.4975 14.8115C18.3101 13.6766 19.7914 12.5938 20.9732 11.5377C21.8334 12.804 23.3406 14.0967 25.5497 15.4799L26.0471 15.7913L26.5444 15.4799C30.2633 13.1514 31.9953 11.0791 31.9953 8.95818C31.9953 6.86462 30.2921 5.16139 28.1985 5.16139C27.4233 5.16139 26.6744 5.39894 26.047 5.83068C25.6037 5.52565 25.0996 5.31809 24.5686 5.22224C24.5304 2.3363 22.1723 0 19.2774 0C18.0796 0 16.9271 0.406628 16.0001 1.13816C15.0731 0.406628 13.9206 0 12.7228 0C9.82793 0 7.4697 2.33636 7.43159 5.22237C6.90056 5.31815 6.39652 5.52565 5.95322 5.83068C5.32585 5.39894 4.57695 5.16139 3.80168 5.16139C1.70812 5.16139 0.00488281 6.86462 0.00488281 8.95818C0.00494529 11.079 1.73699 13.1514 5.45587 15.4798V15.4798ZM24.2657 7.07256C24.6792 7.15404 25.059 7.36997 25.342 7.69306L26.0471 8.49832L26.7522 7.69306C27.1179 7.27531 27.6451 7.03576 28.1985 7.03576C29.2585 7.03576 30.1209 7.89813 30.1209 8.95812C30.1209 10.2357 28.7153 11.8254 26.0471 13.5727C24.1725 12.3452 22.9219 11.1956 22.3436 10.1773C22.443 10.0661 22.5395 9.95507 22.6324 9.84423C23.4102 8.91582 23.9556 7.98879 24.2657 7.07256V7.07256ZM12.7228 1.87444C13.7072 1.87444 14.6447 2.30031 15.295 3.04296L16.0001 3.84822L16.7052 3.04296C17.3555 2.30031 18.293 1.87444 19.2774 1.87444C21.1624 1.87444 22.696 3.40804 22.696 5.29303C22.696 7.48606 20.444 10.0461 16.0001 12.9071C11.5562 10.0461 9.30421 7.48606 9.30421 5.29303C9.30421 3.40804 10.8378 1.87444 12.7228 1.87444V1.87444ZM3.80168 7.03576C4.35514 7.03576 4.88235 7.27531 5.24806 7.69306L5.95316 8.49832L6.65826 7.69306C6.94123 7.36991 7.321 7.15404 7.73456 7.07256C8.04453 7.98879 8.59005 8.91582 9.36788 9.84423C9.46066 9.95501 9.55707 10.0659 9.65642 10.177C9.07815 11.1954 7.82797 12.345 5.95322 13.5728C3.28496 11.8254 1.87938 10.2358 1.87938 8.95818C1.87938 7.89812 2.74168 7.03576 3.80168 7.03576V7.03576Z" fill="#2E9CE0"/>
</svg>
